<svg width="130" height="32" viewBox="0 0 130 32" fill="none" xmlns="http://www.w3.org/2000/svg">
<g clip-path="url(#clip0_184_459)">
<g clip-path="url(#paint0_diamond_184_459_clip_path)" data-figma-skip-parse="true"><g transform="matrix(0.03056 -1.66733e-10 1.66732e-10 0.03056 15.9995 16)"><rect x="0" y="0" width="534.031" height="534.031" fill="url(#paint0_diamond_184_459)" opacity="1" shape-rendering="crispEdges"/><rect x="0" y="0" width="534.031" height="534.031" transform="scale(1 -1)" fill="url(#paint0_diamond_184_459)" opacity="1" shape-rendering="crispEdges"/><rect x="0" y="0" width="534.031" height="534.031" transform="scale(-1 1)" fill="url(#paint0_diamond_184_459)" opacity="1" shape-rendering="crispEdges"/><rect x="0" y="0" width="534.031" height="534.031" transform="scale(-1)" fill="url(#paint0_diamond_184_459)" opacity="1" shape-rendering="crispEdges"/></g></g><circle cx="15.9995" cy="16" r="16" data-figma-gradient-fill="{&#34;type&#34;:&#34;GRADIENT_DIAMOND&#34;,&#34;stops&#34;:[{&#34;color&#34;:{&#34;r&#34;:0.36078432202339172,&#34;g&#34;:0.090196080505847931,&#34;b&#34;:0.062745101749897003,&#34;a&#34;:1.0},&#34;position&#34;:0.0},{&#34;color&#34;:{&#34;r&#34;:0.76862746477127075,&#34;g&#34;:0.043137256056070328,&#34;b&#34;:0.18431372940540314,&#34;a&#34;:1.0},&#34;position&#34;:1.0}],&#34;stopsVar&#34;:[{&#34;color&#34;:{&#34;r&#34;:0.36078432202339172,&#34;g&#34;:0.090196080505847931,&#34;b&#34;:0.062745101749897003,&#34;a&#34;:1.0},&#34;position&#34;:0.0},{&#34;color&#34;:{&#34;r&#34;:0.76862746477127075,&#34;g&#34;:0.043137256056070328,&#34;b&#34;:0.18431372940540314,&#34;a&#34;:1.0},&#34;position&#34;:1.0}],&#34;transform&#34;:{&#34;m00&#34;:61.119998931884766,&#34;m01&#34;:3.3346464078931604e-07,&#34;m02&#34;:-14.560488700866699,&#34;m10&#34;:-3.3346515238008578e-07,&#34;m11&#34;:61.119998931884766,&#34;m12&#34;:-14.559999465942383},&#34;opacity&#34;:1.0,&#34;blendMode&#34;:&#34;NORMAL&#34;,&#34;visible&#34;:true}"/>
<path d="M12.7538 9.92311C1.74769 2.10727 24.2471 -2.6295 31.3605 10.237C28.1347 -3.48098 8.47889 -5.40959 2.19809 7.48698C-1.31618 16.4334 16.9946 19.1701 21.1757 23.8464C22.0798 24.8576 21.8329 26.4056 20.9165 27.4056C16.598 32.1177 4.60051 29.8809 0.800537 22.237C4.50902 34.8464 22.7319 38.2326 29.9139 24.4485C30.5338 23.2587 30.686 21.8169 29.988 20.6712C27.4287 16.4706 20.2693 14.3918 12.7538 9.92311Z" fill="#791112" stroke="white" stroke-width="0.8"/>
</g>
<path d="M48.3151 22.1206C47.511 22.1206 46.7873 21.9828 46.144 21.7071C45.5007 21.4199 44.9953 21.0178 44.6277 20.5009C44.2601 19.984 44.0763 19.3809 44.0763 18.6917H46.1784C46.2244 19.2086 46.4254 19.6336 46.7815 19.9668C47.1491 20.2999 47.6603 20.4665 48.3151 20.4665C48.9928 20.4665 49.5212 20.3056 49.9003 19.984C50.2794 19.6509 50.4689 19.2258 50.4689 18.7089C50.4689 18.3069 50.3483 17.9795 50.1071 17.7268C49.8773 17.4741 49.5844 17.2788 49.2283 17.1409C48.8837 17.0031 48.4012 16.8537 47.7809 16.6929C46.9998 16.4862 46.3622 16.2794 45.8683 16.0726C45.3858 15.8544 44.9723 15.5212 44.6277 15.0732C44.2831 14.6252 44.1108 14.0279 44.1108 13.2812C44.1108 12.592 44.2831 11.9889 44.6277 11.472C44.9723 10.9551 45.4548 10.5588 46.0751 10.2831C46.6954 10.0074 47.4133 9.86954 48.2289 9.86954C49.3891 9.86954 50.3368 10.1625 51.072 10.7483C51.8186 11.3227 52.2322 12.1153 52.3126 13.1262H50.1415C50.1071 12.6896 49.9003 12.3163 49.5212 12.0062C49.1421 11.696 48.6424 11.5409 48.0221 11.5409C47.4593 11.5409 46.9998 11.6845 46.6437 11.9717C46.2876 12.2589 46.1095 12.6724 46.1095 13.2123C46.1095 13.5799 46.2186 13.8843 46.4369 14.1255C46.6666 14.3553 46.9538 14.5391 47.2984 14.6769C47.6431 14.8148 48.114 14.9641 48.7114 15.1249C49.504 15.3432 50.1473 15.5614 50.6412 15.7797C51.1466 15.9979 51.5717 16.3368 51.9163 16.7963C52.2724 17.2443 52.4504 17.8474 52.4504 18.6055C52.4504 19.2144 52.2839 19.7887 51.9508 20.3286C51.6291 20.8685 51.1524 21.305 50.5206 21.6382C49.9003 21.9598 49.1651 22.1206 48.3151 22.1206ZM56.7326 13.9015C57.0657 13.465 57.5194 13.0974 58.0938 12.7988C58.6681 12.5001 59.3172 12.3508 60.0409 12.3508C60.8679 12.3508 61.6204 12.5575 62.2981 12.9711C62.9873 13.3731 63.5272 13.9417 63.9178 14.6769C64.3084 15.4121 64.5036 16.2564 64.5036 17.2098C64.5036 18.1633 64.3084 19.0191 63.9178 19.7772C63.5272 20.5239 62.9873 21.1097 62.2981 21.5348C61.6204 21.9483 60.8679 22.1551 60.0409 22.1551C59.3172 22.1551 58.6739 22.0115 58.111 21.7243C57.5481 21.4256 57.0887 21.0581 56.7326 20.6215V26.5145H54.7683V12.5058H56.7326V13.9015ZM62.5049 17.2098C62.5049 16.5551 62.367 15.9922 62.0913 15.5212C61.8271 15.0388 61.471 14.6769 61.023 14.4357C60.5865 14.183 60.1155 14.0566 59.6101 14.0566C59.1161 14.0566 58.6452 14.183 58.1972 14.4357C57.7607 14.6884 57.4046 15.056 57.1289 15.5385C56.8647 16.0209 56.7326 16.5895 56.7326 17.2443C56.7326 17.8991 56.8647 18.4734 57.1289 18.9674C57.4046 19.4498 57.7607 19.8174 58.1972 20.0702C58.6452 20.3229 59.1161 20.4492 59.6101 20.4492C60.1155 20.4492 60.5865 20.3229 61.023 20.0702C61.471 19.8059 61.8271 19.4269 62.0913 18.9329C62.367 18.439 62.5049 17.8646 62.5049 17.2098ZM70.5643 22.1551C69.6683 22.1551 68.8584 21.9541 68.1348 21.552C67.4111 21.1385 66.8424 20.5641 66.4289 19.8289C66.0154 19.0823 65.8086 18.2207 65.8086 17.2443C65.8086 16.2794 66.0211 15.4236 66.4461 14.6769C66.8712 13.9303 67.4513 13.3559 68.1864 12.9538C68.9216 12.5518 69.743 12.3508 70.6504 12.3508C71.5579 12.3508 72.3793 12.5518 73.1144 12.9538C73.8496 13.3559 74.4297 13.9303 74.8548 14.6769C75.2798 15.4236 75.4923 16.2794 75.4923 17.2443C75.4923 18.2092 75.274 19.065 74.8375 19.8117C74.401 20.5584 73.8037 21.1385 73.0455 21.552C72.2989 21.9541 71.4718 22.1551 70.5643 22.1551ZM70.5643 20.4492C71.0697 20.4492 71.5407 20.3286 71.9772 20.0874C72.4252 19.8462 72.7871 19.4843 73.0628 19.0018C73.3384 18.5194 73.4763 17.9335 73.4763 17.2443C73.4763 16.5551 73.3442 15.975 73.08 15.504C72.8158 15.0215 72.4654 14.6597 72.0289 14.4185C71.5924 14.1772 71.1214 14.0566 70.616 14.0566C70.1105 14.0566 69.6396 14.1772 69.2031 14.4185C68.778 14.6597 68.4392 15.0215 68.1864 15.504C67.9337 15.975 67.8074 16.5551 67.8074 17.2443C67.8074 18.2667 68.0658 19.0593 68.5828 19.6222C69.1112 20.1735 69.7717 20.4492 70.5643 20.4492ZM79.3984 13.8843C79.6856 13.4018 80.0647 13.0285 80.5357 12.7643C81.0181 12.4886 81.5867 12.3508 82.2415 12.3508V14.384H81.7418C80.9722 14.384 80.3863 14.5793 79.9843 14.9698C79.5937 15.3604 79.3984 16.0382 79.3984 17.0031V22H77.4341V12.5058H79.3984V13.8843ZM86.3388 14.1083V19.3637C86.3388 19.7198 86.4192 19.9783 86.58 20.1391C86.7523 20.2884 87.0395 20.3631 87.4416 20.3631H88.6477V22H87.0969C86.2124 22 85.5347 21.7932 85.0637 21.3797C84.5927 20.9662 84.3573 20.2942 84.3573 19.3637V14.1083H83.2373V12.5058H84.3573V10.1452H86.3388V12.5058H88.6477V14.1083H86.3388ZM92.7498 14.1083V19.3637C92.7498 19.7198 92.8303 19.9783 92.9911 20.1391C93.1634 20.2884 93.4506 20.3631 93.8526 20.3631H95.0588V22H93.508C92.6235 22 91.9457 21.7932 91.4748 21.3797C91.0038 20.9662 90.7683 20.2942 90.7683 19.3637V14.1083H89.6483V12.5058H90.7683V10.1452H92.7498V12.5058H95.0588V14.1083H92.7498ZM101.78 12.3508C102.504 12.3508 103.147 12.5058 103.71 12.816C104.284 13.1262 104.732 13.5856 105.054 14.1945C105.387 14.8033 105.554 15.5385 105.554 16.4V22H103.606V16.6929C103.606 15.8429 103.394 15.1938 102.969 14.7458C102.544 14.2864 101.964 14.0566 101.229 14.0566C100.493 14.0566 99.9076 14.2864 99.4711 14.7458C99.046 15.1938 98.8335 15.8429 98.8335 16.6929V22H96.8692V9.24923H98.8335V13.6086C99.1667 13.2066 99.5859 12.8964 100.091 12.6782C100.608 12.4599 101.171 12.3508 101.78 12.3508ZM112.177 22.1551C111.281 22.1551 110.471 21.9541 109.748 21.552C109.024 21.1385 108.455 20.5641 108.042 19.8289C107.628 19.0823 107.422 18.2207 107.422 17.2443C107.422 16.2794 107.634 15.4236 108.059 14.6769C108.484 13.9303 109.064 13.3559 109.799 12.9538C110.535 12.5518 111.356 12.3508 112.263 12.3508C113.171 12.3508 113.992 12.5518 114.727 12.9538C115.463 13.3559 116.043 13.9303 116.468 14.6769C116.893 15.4236 117.105 16.2794 117.105 17.2443C117.105 18.2092 116.887 19.065 116.451 19.8117C116.014 20.5584 115.417 21.1385 114.659 21.552C113.912 21.9541 113.085 22.1551 112.177 22.1551ZM112.177 20.4492C112.683 20.4492 113.154 20.3286 113.59 20.0874C114.038 19.8462 114.4 19.4843 114.676 19.0018C114.951 18.5194 115.089 17.9335 115.089 17.2443C115.089 16.5551 114.957 15.975 114.693 15.504C114.429 15.0215 114.078 14.6597 113.642 14.4185C113.205 14.1772 112.734 14.0566 112.229 14.0566C111.724 14.0566 111.253 14.1772 110.816 14.4185C110.391 14.6597 110.052 15.0215 109.799 15.504C109.547 15.975 109.42 16.5551 109.42 17.2443C109.42 18.2667 109.679 19.0593 110.196 19.6222C110.724 20.1735 111.385 20.4492 112.177 20.4492ZM123.837 12.3508C124.584 12.3508 125.25 12.5058 125.836 12.816C126.433 13.1262 126.899 13.5856 127.232 14.1945C127.565 14.8033 127.731 15.5385 127.731 16.4V22H125.784V16.6929C125.784 15.8429 125.572 15.1938 125.147 14.7458C124.722 14.2864 124.142 14.0566 123.406 14.0566C122.671 14.0566 122.085 14.2864 121.649 14.7458C121.224 15.1938 121.011 15.8429 121.011 16.6929V22H119.047V12.5058H121.011V13.5914C121.333 13.2008 121.741 12.8964 122.235 12.6782C122.74 12.4599 123.274 12.3508 123.837 12.3508Z" fill="white"/>
<defs>
<clipPath id="paint0_diamond_184_459_clip_path"><circle cx="15.9995" cy="16" r="16"/></clipPath><linearGradient id="paint0_diamond_184_459" x1="0" y1="0" x2="500" y2="500" gradientUnits="userSpaceOnUse">
<stop stop-color="#5C1710"/>
<stop offset="1" stop-color="#C40B2F"/>
</linearGradient>
<clipPath id="clip0_184_459">
<rect width="32" height="32" rx="16" fill="white"/>
</clipPath>
</defs>
</svg>
